<?xml version="1.0" standalone="no"?>
<svg viewBox="0 0 200 200" xmlns="http://www.w3.org/2000/svg">
  <path fill="#FFD5C4" d="M41.4,-75.7C51.4,-66,55.6,-50.3,64.3,-36.7C73.1,-23,86.3,-11.5,86.9,0.3C87.5,12.2,75.4,24.4,64.8,34.8C54.2,45.2,45.1,53.8,34.6,60.2C24,66.7,12,71,-0.1,71.2C-12.2,71.4,-24.4,67.4,-35.8,61.4C-47.1,55.4,-57.7,47.4,-67.3,36.8C-76.9,26.2,-85.7,13.1,-88.5,-1.6C-91.3,-16.3,-88,-32.6,-78.4,-43.2C-68.7,-53.8,-52.7,-58.6,-38.5,-65.9C-24.4,-73.2,-12.2,-83,1.8,-86.1C15.7,-89.1,31.5,-85.4,41.4,-75.7Z" transform="translate(100 100)" />
</svg>
