<?xml version="1.0" standalone="no"?>
<svg viewBox="0 0 200 200" xmlns="http://www.w3.org/2000/svg">
  <path fill="#FFD5C4" d="M45.9,-68.5C60,-62.3,72.3,-50.5,78.8,-36C85.3,-21.6,85.9,-4.6,83.3,11.8C80.7,28.2,74.8,43.9,64.3,55.3C53.8,66.6,38.7,73.4,23.2,77.2C7.6,81,-8.3,81.8,-23.7,78.3C-39,74.9,-53.9,67.2,-65.5,55.7C-77.1,44.2,-85.6,28.8,-89,12.1C-92.4,-4.6,-90.7,-22.6,-82.8,-36.9C-74.9,-51.2,-60.7,-61.8,-45.8,-67.6C-31,-73.5,-15.5,-74.7,0.2,-75C15.9,-75.3,31.8,-74.7,45.9,-68.5Z" transform="translate(100 100)" />
</svg>
