<?xml version="1.0" standalone="no"?>
<svg xmlns:xlink="http://www.w3.org/1999/xlink" id="wave" style="transform:rotate(0deg); transition: 0.3s" viewBox="0 0 1440 490" version="1.1" xmlns="http://www.w3.org/2000/svg"><defs><linearGradient id="sw-gradient-0" x1="0" x2="0" y1="1" y2="0"><stop stop-color="rgba(243, 106, 62, 1)" offset="0%"/><stop stop-color="rgba(255, 179, 11, 1)" offset="100%"/></linearGradient></defs><path style="transform:translate(0, 0px); opacity:1" fill="url(#sw-gradient-0)" d="M0,392L240,359.3C480,327,960,261,1440,245C1920,229,2400,261,2880,302.2C3360,343,3840,392,4320,359.3C4800,327,5280,212,5760,147C6240,82,6720,65,7200,114.3C7680,163,8160,278,8640,343C9120,408,9600,425,10080,408.3C10560,392,11040,343,11520,310.3C12000,278,12480,261,12960,285.8C13440,310,13920,376,14400,367.5C14880,359,15360,278,15840,236.8C16320,196,16800,196,17280,220.5C17760,245,18240,294,18720,269.5C19200,245,19680,147,20160,122.5C20640,98,21120,147,21600,179.7C22080,212,22560,229,23040,196C23520,163,24000,82,24480,49C24960,16,25440,33,25920,49C26400,65,26880,82,27360,98C27840,114,28320,131,28800,147C29280,163,29760,180,30240,204.2C30720,229,31200,261,31680,236.8C32160,212,32640,131,33120,114.3C33600,98,34080,147,34320,171.5L34560,196L34560,490L34320,490C34080,490,33600,490,33120,490C32640,490,32160,490,31680,490C31200,490,30720,490,30240,490C29760,490,29280,490,28800,490C28320,490,27840,490,27360,490C26880,490,26400,490,25920,490C25440,490,24960,490,24480,490C24000,490,23520,490,23040,490C22560,490,22080,490,21600,490C21120,490,20640,490,20160,490C19680,490,19200,490,18720,490C18240,490,17760,490,17280,490C16800,490,16320,490,15840,490C15360,490,14880,490,14400,490C13920,490,13440,490,12960,490C12480,490,12000,490,11520,490C11040,490,10560,490,10080,490C9600,490,9120,490,8640,490C8160,490,7680,490,7200,490C6720,490,6240,490,5760,490C5280,490,4800,490,4320,490C3840,490,3360,490,2880,490C2400,490,1920,490,1440,490C960,490,480,490,240,490L0,490Z"/><defs><linearGradient id="sw-gradient-1" x1="0" x2="0" y1="1" y2="0"><stop stop-color="rgba(243, 106, 62, 1)" offset="0%"/><stop stop-color="rgba(255, 179, 11, 1)" offset="100%"/></linearGradient></defs><path style="transform:translate(0, 50px); opacity:0.9" fill="url(#sw-gradient-1)" d="M0,0L240,57.2C480,114,960,229,1440,285.8C1920,343,2400,343,2880,302.2C3360,261,3840,180,4320,122.5C4800,65,5280,33,5760,32.7C6240,33,6720,65,7200,73.5C7680,82,8160,65,8640,106.2C9120,147,9600,245,10080,294C10560,343,11040,343,11520,343C12000,343,12480,343,12960,302.2C13440,261,13920,180,14400,138.8C14880,98,15360,98,15840,98C16320,98,16800,98,17280,147C17760,196,18240,294,18720,294C19200,294,19680,196,20160,138.8C20640,82,21120,65,21600,122.5C22080,180,22560,310,23040,367.5C23520,425,24000,408,24480,343C24960,278,25440,163,25920,98C26400,33,26880,16,27360,49C27840,82,28320,163,28800,196C29280,229,29760,212,30240,220.5C30720,229,31200,261,31680,269.5C32160,278,32640,261,33120,269.5C33600,278,34080,310,34320,326.7L34560,343L34560,490L34320,490C34080,490,33600,490,33120,490C32640,490,32160,490,31680,490C31200,490,30720,490,30240,490C29760,490,29280,490,28800,490C28320,490,27840,490,27360,490C26880,490,26400,490,25920,490C25440,490,24960,490,24480,490C24000,490,23520,490,23040,490C22560,490,22080,490,21600,490C21120,490,20640,490,20160,490C19680,490,19200,490,18720,490C18240,490,17760,490,17280,490C16800,490,16320,490,15840,490C15360,490,14880,490,14400,490C13920,490,13440,490,12960,490C12480,490,12000,490,11520,490C11040,490,10560,490,10080,490C9600,490,9120,490,8640,490C8160,490,7680,490,7200,490C6720,490,6240,490,5760,490C5280,490,4800,490,4320,490C3840,490,3360,490,2880,490C2400,490,1920,490,1440,490C960,490,480,490,240,490L0,490Z"/><defs><linearGradient id="sw-gradient-2" x1="0" x2="0" y1="1" y2="0"><stop stop-color="rgba(243, 106, 62, 1)" offset="0%"/><stop stop-color="rgba(255, 179, 11, 1)" offset="100%"/></linearGradient></defs><path style="transform:translate(0, 100px); opacity:0.8" fill="url(#sw-gradient-2)" d="M0,245L240,228.7C480,212,960,180,1440,196C1920,212,2400,278,2880,302.2C3360,327,3840,310,4320,269.5C4800,229,5280,163,5760,122.5C6240,82,6720,65,7200,49C7680,33,8160,16,8640,8.2C9120,0,9600,0,10080,57.2C10560,114,11040,229,11520,269.5C12000,310,12480,278,12960,285.8C13440,294,13920,343,14400,334.8C14880,327,15360,261,15840,253.2C16320,245,16800,294,17280,294C17760,294,18240,245,18720,236.8C19200,229,19680,261,20160,285.8C20640,310,21120,327,21600,310.3C22080,294,22560,245,23040,236.8C23520,229,24000,261,24480,285.8C24960,310,25440,327,25920,343C26400,359,26880,376,27360,375.7C27840,376,28320,359,28800,318.5C29280,278,29760,212,30240,187.8C30720,163,31200,180,31680,204.2C32160,229,32640,261,33120,277.7C33600,294,34080,294,34320,294L34560,294L34560,490L34320,490C34080,490,33600,490,33120,490C32640,490,32160,490,31680,490C31200,490,30720,490,30240,490C29760,490,29280,490,28800,490C28320,490,27840,490,27360,490C26880,490,26400,490,25920,490C25440,490,24960,490,24480,490C24000,490,23520,490,23040,490C22560,490,22080,490,21600,490C21120,490,20640,490,20160,490C19680,490,19200,490,18720,490C18240,490,17760,490,17280,490C16800,490,16320,490,15840,490C15360,490,14880,490,14400,490C13920,490,13440,490,12960,490C12480,490,12000,490,11520,490C11040,490,10560,490,10080,490C9600,490,9120,490,8640,490C8160,490,7680,490,7200,490C6720,490,6240,490,5760,490C5280,490,4800,490,4320,490C3840,490,3360,490,2880,490C2400,490,1920,490,1440,490C960,490,480,490,240,490L0,490Z"/><defs><linearGradient id="sw-gradient-3" x1="0" x2="0" y1="1" y2="0"><stop stop-color="rgba(243, 106, 62, 1)" offset="0%"/><stop stop-color="rgba(255, 179, 11, 1)" offset="100%"/></linearGradient></defs><path style="transform:translate(0, 150px); opacity:0.7" fill="url(#sw-gradient-3)" d="M0,245L240,277.7C480,310,960,376,1440,343C1920,310,2400,180,2880,147C3360,114,3840,180,4320,220.5C4800,261,5280,278,5760,236.8C6240,196,6720,98,7200,57.2C7680,16,8160,33,8640,32.7C9120,33,9600,16,10080,73.5C10560,131,11040,261,11520,310.3C12000,359,12480,327,12960,285.8C13440,245,13920,196,14400,147C14880,98,15360,49,15840,65.3C16320,82,16800,163,17280,196C17760,229,18240,212,18720,204.2C19200,196,19680,196,20160,187.8C20640,180,21120,163,21600,187.8C22080,212,22560,278,23040,302.2C23520,327,24000,310,24480,261.3C24960,212,25440,131,25920,138.8C26400,147,26880,245,27360,277.7C27840,310,28320,278,28800,294C29280,310,29760,376,30240,392C30720,408,31200,376,31680,318.5C32160,261,32640,180,33120,138.8C33600,98,34080,98,34320,98L34560,98L34560,490L34320,490C34080,490,33600,490,33120,490C32640,490,32160,490,31680,490C31200,490,30720,490,30240,490C29760,490,29280,490,28800,490C28320,490,27840,490,27360,490C26880,490,26400,490,25920,490C25440,490,24960,490,24480,490C24000,490,23520,490,23040,490C22560,490,22080,490,21600,490C21120,490,20640,490,20160,490C19680,490,19200,490,18720,490C18240,490,17760,490,17280,490C16800,490,16320,490,15840,490C15360,490,14880,490,14400,490C13920,490,13440,490,12960,490C12480,490,12000,490,11520,490C11040,490,10560,490,10080,490C9600,490,9120,490,8640,490C8160,490,7680,490,7200,490C6720,490,6240,490,5760,490C5280,490,4800,490,4320,490C3840,490,3360,490,2880,490C2400,490,1920,490,1440,490C960,490,480,490,240,490L0,490Z"/></svg>